<svg width="56" height="56" viewBox="0 0 56 56" xmlns="http://www.w3.org/2000/svg"><g clip-path="url(#us-flag)"><path d="M28 56c15.464 0 28-12.536 28-28S43.464 0 28 0 0 12.536 0 28s12.536 28 28 28z" fill="#fff"/><path d="M26.783 28H56a28.03 28.03 0 00-.965-7.304H26.784V28zM26.783 13.391H51.89a28.148 28.148 0 00-6.46-7.304H26.783v7.304zM28 56a27.88 27.88 0 0017.43-6.087H10.57A27.88 27.88 0 0028 56zM4.11 42.609h47.78a27.834 27.834 0 003.145-7.305H.965A27.834 27.834 0 004.11 42.61z" fill="#E74A3F"/><path d="M12.97 4.373h2.552l-2.374 1.724.907 2.79-2.373-1.724-2.374 1.724.783-2.41a28.155 28.155 0 00-5.43 6.052h.817l-1.51 1.098c-.236.392-.462.791-.678 1.196l.721 2.22-1.346-.977a27.73 27.73 0 00-.915 2.173l.795 2.447h2.933L3.105 22.41l.906 2.79-2.373-1.724-1.422 1.033A28.27 28.27 0 000 28h28V0a27.868 27.868 0 00-15.03 4.373zM14.055 25.2l-2.373-1.724L9.308 25.2l.907-2.79-2.374-1.724h2.934l.907-2.79.906 2.79h2.934l-2.374 1.724.907 2.79zm-.907-10.947l.907 2.79-2.373-1.724-2.374 1.725.907-2.79-2.374-1.725h2.934l.907-2.79.906 2.79h2.934l-2.374 1.724zM24.098 25.2l-2.373-1.724-2.373 1.724.906-2.79-2.373-1.724h2.933l.907-2.79.906 2.79h2.934l-2.373 1.724.906 2.79zm-.906-10.947l.906 2.79-2.373-1.724-2.373 1.725.906-2.79-2.373-1.725h2.933l.907-2.79.906 2.79h2.934l-2.373 1.724zm0-8.156l.906 2.79-2.373-1.724-2.373 1.724.906-2.79-2.373-1.724h2.933l.907-2.79.906 2.79h2.934l-2.373 1.724z" fill="#154CCF"/><path d="M55.5 28c0 15.188-12.312 27.5-27.5 27.5S.5 43.188.5 28 12.812.5 28 .5 55.5 12.812 55.5 28z" stroke="#000" stroke-opacity=".1" fill="none"/></g><defs><clipPath id="us-flag"><path fill="#fff" d="M0 0h56v56H0z"/></clipPath></defs></svg>