<svg width="56" height="56" viewBox="0 0 56 56" xmlns="http://www.w3.org/2000/svg"><g clip-path="url(#korea-flag)"><path d="M1.742 37.74C5.698 48.4 15.962 56 28.001 56s22.302-7.599 26.258-18.26l-26.258-2.436L1.742 37.74z" fill="#F2C55D"/><path d="M28 56c15.464 0 28-12.536 28-28S43.464 0 28 0 0 12.536 0 28s12.536 28 28 28z" fill="#fff"/><path d="M37.74 28c0 2.435-4.36 8.522-9.74 8.522-5.378 0-9.738-6.087-9.738-8.522 0-5.379 4.36-9.74 9.739-9.74 5.378 0 9.739 4.361 9.739 9.74z" fill="#E74A3F"/><path d="M37.74 28c0 5.379-4.36 9.74-9.74 9.74-5.378 0-9.738-4.361-9.738-9.74" fill="#154CCF"/><path d="M40.91 34.026l-2.582 2.582 1.722 1.722 2.582-2.582-1.721-1.722zM36.606 38.33l-2.583 2.583 1.722 1.721 2.583-2.582-1.722-1.722zM46.078 39.19l-2.582 2.582 1.722 1.722L47.8 40.91 46.08 39.19zM41.774 43.495l-2.583 2.582 1.722 1.722 2.582-2.582-1.721-1.722zM43.497 36.608l-2.583 2.583 1.722 1.721 2.582-2.582-1.721-1.722zM39.192 40.912l-2.583 2.583 1.722 1.722 2.582-2.583-1.721-1.722zM36.61 12.505l6.886 6.886 1.721-1.722-6.886-6.886-1.722 1.722zM34.027 15.088l2.583 2.582 1.721-1.721-2.582-2.583-1.722 1.722zM38.332 19.392l2.582 2.582 1.722-1.721-2.583-2.583-1.721 1.722zM39.191 9.923l2.583 2.582 1.721-1.721L40.913 8.2l-1.722 1.722zM43.496 14.227l2.582 2.583 1.722-1.722-2.582-2.582-1.722 1.721zM16.807 46.078L9.921 39.19l-1.722 1.722 6.887 6.886 1.721-1.721zM19.39 43.494l-2.582-2.582-1.722 1.721 2.582 2.583 1.722-1.722zM15.09 39.19l-2.583-2.582-1.722 1.722 2.583 2.582 1.721-1.721zM21.975 40.912l-6.886-6.886-1.722 1.721 6.887 6.887 1.721-1.722zM9.92 16.809l6.887-6.886L15.086 8.2l-6.887 6.886 1.722 1.722zM12.503 19.39l6.886-6.886-1.721-1.721-6.887 6.886 1.722 1.722zM15.089 21.974l6.886-6.886-1.721-1.722-6.887 6.887 1.722 1.721z"/><path d="M55.5 28c0 15.188-12.312 27.5-27.5 27.5S.5 43.188.5 28 12.812.5 28 .5 55.5 12.812 55.5 28z" stroke="#000" stroke-opacity=".1" fill="none"/></g><defs><clipPath id="korea-flag"><path d="M0 0h56v56H0V0z" fill="#fff"/></clipPath></defs></svg>